<mxfile host="app.diagrams.net" modified="2024-05-27T13:12:33.108Z" agent="Mozilla/5.0 (Windows NT 10.0; Win64; x64; rv:126.0) Gecko/20100101 Firefox/126.0" etag="K5wPwDsln8q94V4mYgBB" version="24.4.8" type="device">
  <diagram id="C5RBs43oDa-KdzZeNtuy" name="Page-1">
    <mxGraphModel dx="1434" dy="818" grid="1" gridSize="10" guides="1" tooltips="1" connect="1" arrows="1" fold="1" page="1" pageScale="1" pageWidth="827" pageHeight="1169" background="#ffffff" math="0" shadow="0">
      <root>
        <mxCell id="WIyWlLk6GJQsqaUBKTNV-0" />
        <mxCell id="WIyWlLk6GJQsqaUBKTNV-1" parent="WIyWlLk6GJQsqaUBKTNV-0" />
        <mxCell id="WIyWlLk6GJQsqaUBKTNV-3" value="Timeseries&lt;br&gt;&lt;div&gt;Longitude &lt;span&gt;λ&lt;/span&gt;&lt;/div&gt;&lt;div&gt;Latitude &lt;span lang=&quot;fr&quot; class=&quot;BxUVEf ILfuVd&quot;&gt;&lt;span class=&quot;hgKElc&quot;&gt;Φ&lt;/span&gt;&lt;/span&gt;&lt;/div&gt;&lt;div&gt;Altitude z&lt;br&gt;&lt;/div&gt;" style="rounded=1;whiteSpace=wrap;html=1;fontSize=12;glass=0;strokeWidth=1;shadow=0;fillColor=#60a917;fontColor=#ffffff;strokeColor=#2D7600;" parent="WIyWlLk6GJQsqaUBKTNV-1" vertex="1">
          <mxGeometry x="71" y="30" width="140" height="75" as="geometry" />
        </mxCell>
        <mxCell id="nY5QdWtAfCeqt1IPBH1M-0" value="Solar zenith &lt;span lang=&quot;en&quot; class=&quot;BxUVEf ILfuVd&quot;&gt;&lt;span class=&quot;hgKElc&quot;&gt;θ&lt;sub&gt;z&lt;/sub&gt;&lt;/span&gt;&lt;/span&gt;&lt;br&gt;Solar azimuth &lt;span&gt;γ&lt;sub&gt;s&lt;/sub&gt;&lt;/span&gt;" style="rounded=0;whiteSpace=wrap;html=1;fillColor=#1ba1e2;fontColor=#ffffff;strokeColor=default;" parent="WIyWlLk6GJQsqaUBKTNV-1" vertex="1">
          <mxGeometry x="51" y="180" width="180" height="40" as="geometry" />
        </mxCell>
        <mxCell id="nY5QdWtAfCeqt1IPBH1M-9" value="" style="endArrow=classic;html=1;rounded=0;exitX=0.5;exitY=1;exitDx=0;exitDy=0;entryX=0.5;entryY=0;entryDx=0;entryDy=0;strokeWidth=2;" parent="WIyWlLk6GJQsqaUBKTNV-1" source="WIyWlLk6GJQsqaUBKTNV-3" target="nY5QdWtAfCeqt1IPBH1M-0" edge="1">
          <mxGeometry relative="1" as="geometry">
            <mxPoint x="170" y="400" as="sourcePoint" />
            <mxPoint x="270" y="400" as="targetPoint" />
          </mxGeometry>
        </mxCell>
        <mxCell id="nY5QdWtAfCeqt1IPBH1M-10" value="solarposition.get_solarposition" style="edgeLabel;resizable=0;html=1;align=center;verticalAlign=middle;" parent="nY5QdWtAfCeqt1IPBH1M-9" connectable="0" vertex="1">
          <mxGeometry relative="1" as="geometry" />
        </mxCell>
        <mxCell id="b3d6tO9OOzQfFbIuxBPO-0" value="Real weather data&lt;br&gt;&lt;div&gt;GHI&lt;/div&gt;" style="rounded=1;whiteSpace=wrap;html=1;fontSize=12;glass=0;strokeWidth=1;shadow=0;fillColor=#60a917;fontColor=#ffffff;strokeColor=#2D7600;" parent="WIyWlLk6GJQsqaUBKTNV-1" vertex="1">
          <mxGeometry x="534" y="410" width="127" height="40" as="geometry" />
        </mxCell>
        <mxCell id="y4S7bG7z480_d9foUhIg-25" style="edgeStyle=orthogonalEdgeStyle;rounded=0;orthogonalLoop=1;jettySize=auto;html=1;exitX=0.5;exitY=1;exitDx=0;exitDy=0;entryX=0.5;entryY=0;entryDx=0;entryDy=0;strokeWidth=2;" edge="1" parent="WIyWlLk6GJQsqaUBKTNV-1" source="b3d6tO9OOzQfFbIuxBPO-17" target="y4S7bG7z480_d9foUhIg-24">
          <mxGeometry relative="1" as="geometry" />
        </mxCell>
        <mxCell id="b3d6tO9OOzQfFbIuxBPO-17" value="POA irradiance (global, direct, diffuse, sky diffuse, ground reflected) G&lt;sub&gt;POA,d&lt;/sub&gt;&lt;br&gt;(Perez irradiance transposition model)" style="rounded=0;whiteSpace=wrap;html=1;fillStyle=solid;fillColor=#E67300;strokeColor=#663300;" parent="WIyWlLk6GJQsqaUBKTNV-1" vertex="1">
          <mxGeometry x="250.5" y="620" width="290" height="50" as="geometry" />
        </mxCell>
        <mxCell id="Nlrnzq0-V_x93CKlz8eS-1" value="" style="endArrow=none;html=1;rounded=0;entryX=0.5;entryY=1;entryDx=0;entryDy=0;strokeWidth=2;" parent="WIyWlLk6GJQsqaUBKTNV-1" edge="1">
          <mxGeometry width="50" height="50" relative="1" as="geometry">
            <mxPoint x="140" y="340" as="sourcePoint" />
            <mxPoint x="141" y="220" as="targetPoint" />
          </mxGeometry>
        </mxCell>
        <mxCell id="Nlrnzq0-V_x93CKlz8eS-8" value="" style="endArrow=classic;html=1;rounded=0;entryX=0.5;entryY=0;entryDx=0;entryDy=0;strokeWidth=2;" parent="WIyWlLk6GJQsqaUBKTNV-1" target="b3d6tO9OOzQfFbIuxBPO-17" edge="1">
          <mxGeometry relative="1" as="geometry">
            <mxPoint x="396" y="547" as="sourcePoint" />
            <mxPoint x="396" y="657" as="targetPoint" />
          </mxGeometry>
        </mxCell>
        <mxCell id="Nlrnzq0-V_x93CKlz8eS-9" value="irradiance.get_total_irradiance" style="edgeLabel;resizable=0;html=1;;align=center;verticalAlign=middle;" parent="Nlrnzq0-V_x93CKlz8eS-8" connectable="0" vertex="1">
          <mxGeometry relative="1" as="geometry" />
        </mxCell>
        <mxCell id="Nlrnzq0-V_x93CKlz8eS-13" value="Inputs" style="rounded=1;whiteSpace=wrap;html=1;fontSize=12;glass=0;strokeWidth=1;shadow=0;fillColor=#60a917;fontColor=#ffffff;strokeColor=#2D7600;" parent="WIyWlLk6GJQsqaUBKTNV-1" vertex="1">
          <mxGeometry x="41" y="740" width="100" height="25" as="geometry" />
        </mxCell>
        <mxCell id="Nlrnzq0-V_x93CKlz8eS-14" value="Calculation step" style="rounded=0;whiteSpace=wrap;html=1;fillStyle=solid;fillColor=#E67300;strokeColor=#663300;" parent="WIyWlLk6GJQsqaUBKTNV-1" vertex="1">
          <mxGeometry x="41" y="777" width="100" height="20" as="geometry" />
        </mxCell>
        <mxCell id="Nlrnzq0-V_x93CKlz8eS-15" value="Outputs" style="rounded=0;whiteSpace=wrap;html=1;fillColor=#1ba1e2;fontColor=#ffffff;strokeColor=default;" parent="WIyWlLk6GJQsqaUBKTNV-1" vertex="1">
          <mxGeometry x="41" y="811" width="100" height="20" as="geometry" />
        </mxCell>
        <mxCell id="y4S7bG7z480_d9foUhIg-4" value="&lt;div&gt;Tracker astronomical rotation angle &lt;span lang=&quot;fr&quot; class=&quot;BxUVEf ILfuVd&quot;&gt;&lt;span class=&quot;hgKElc&quot;&gt;β&lt;sub&gt;d&lt;/sub&gt;&lt;/span&gt;&lt;/span&gt;&lt;/div&gt;&lt;div&gt;AOI&lt;/div&gt;" style="rounded=0;whiteSpace=wrap;html=1;fillColor=#1ba1e2;fontColor=#ffffff;strokeColor=#000000;" vertex="1" parent="WIyWlLk6GJQsqaUBKTNV-1">
          <mxGeometry x="141" y="443" width="240" height="50" as="geometry" />
        </mxCell>
        <mxCell id="y4S7bG7z480_d9foUhIg-5" value="&lt;div&gt;Tracker/axis azimuth &lt;span&gt;γ&lt;sub&gt;a&lt;/sub&gt;&lt;/span&gt;&lt;/div&gt;&lt;div&gt;Tracker/axis tilt&amp;nbsp;&lt;span lang=&quot;fr&quot; class=&quot;BxUVEf ILfuVd&quot;&gt;&lt;span class=&quot;hgKElc&quot;&gt;β&lt;/span&gt;&lt;/span&gt;&lt;span&gt;&lt;sub&gt;a&lt;/sub&gt;&lt;/span&gt;&lt;/div&gt;Maximum rotation angle &lt;span lang=&quot;fr&quot; class=&quot;BxUVEf ILfuVd&quot;&gt;&lt;span class=&quot;hgKElc&quot;&gt;β&lt;/span&gt;&lt;/span&gt;&lt;sub&gt;max&lt;/sub&gt;&lt;br&gt;GCR" style="rounded=1;whiteSpace=wrap;html=1;fontSize=12;glass=0;strokeWidth=1;shadow=0;fillColor=#60a917;fontColor=#ffffff;strokeColor=#2D7600;" vertex="1" parent="WIyWlLk6GJQsqaUBKTNV-1">
          <mxGeometry x="272" y="166" width="220" height="70" as="geometry" />
        </mxCell>
        <mxCell id="y4S7bG7z480_d9foUhIg-18" style="edgeStyle=orthogonalEdgeStyle;rounded=0;orthogonalLoop=1;jettySize=auto;html=1;exitX=0.5;exitY=1;exitDx=0;exitDy=0;exitPerimeter=0;strokeWidth=2;endArrow=none;endFill=0;" edge="1" parent="WIyWlLk6GJQsqaUBKTNV-1" source="y4S7bG7z480_d9foUhIg-9">
          <mxGeometry relative="1" as="geometry">
            <mxPoint x="460" y="364" as="targetPoint" />
          </mxGeometry>
        </mxCell>
        <mxCell id="y4S7bG7z480_d9foUhIg-9" value="" style="strokeWidth=2;html=1;shape=mxgraph.flowchart.annotation_2;align=left;labelPosition=right;pointerEvents=1;rotation=-90;" vertex="1" parent="WIyWlLk6GJQsqaUBKTNV-1">
          <mxGeometry x="236" y="243" width="50" height="242.5" as="geometry" />
        </mxCell>
        <mxCell id="y4S7bG7z480_d9foUhIg-10" value="" style="endArrow=classic;html=1;rounded=0;exitX=0;exitY=0.5;exitDx=0;exitDy=0;exitPerimeter=0;entryX=0.5;entryY=0;entryDx=0;entryDy=0;strokeWidth=2;" edge="1" parent="WIyWlLk6GJQsqaUBKTNV-1" target="y4S7bG7z480_d9foUhIg-4">
          <mxGeometry relative="1" as="geometry">
            <mxPoint x="261" y="374.25" as="sourcePoint" />
            <mxPoint x="261" y="435" as="targetPoint" />
          </mxGeometry>
        </mxCell>
        <mxCell id="y4S7bG7z480_d9foUhIg-11" value="tracking.singleaxis" style="edgeLabel;resizable=0;html=1;align=center;verticalAlign=middle;" connectable="0" vertex="1" parent="y4S7bG7z480_d9foUhIg-10">
          <mxGeometry relative="1" as="geometry" />
        </mxCell>
        <mxCell id="y4S7bG7z480_d9foUhIg-14" value="" style="endArrow=none;html=1;rounded=0;exitX=1;exitY=1;exitDx=0;exitDy=0;exitPerimeter=0;entryX=0.5;entryY=1;entryDx=0;entryDy=0;strokeWidth=2;" edge="1" parent="WIyWlLk6GJQsqaUBKTNV-1" source="y4S7bG7z480_d9foUhIg-9" target="y4S7bG7z480_d9foUhIg-5">
          <mxGeometry width="50" height="50" relative="1" as="geometry">
            <mxPoint x="420" y="280" as="sourcePoint" />
            <mxPoint x="470" y="230" as="targetPoint" />
          </mxGeometry>
        </mxCell>
        <mxCell id="y4S7bG7z480_d9foUhIg-17" style="edgeStyle=orthogonalEdgeStyle;rounded=0;orthogonalLoop=1;jettySize=auto;html=1;exitX=1;exitY=0;exitDx=0;exitDy=0;exitPerimeter=0;entryX=0.5;entryY=1;entryDx=0;entryDy=0;endArrow=none;endFill=0;strokeWidth=2;" edge="1" parent="WIyWlLk6GJQsqaUBKTNV-1" source="y4S7bG7z480_d9foUhIg-15" target="y4S7bG7z480_d9foUhIg-4">
          <mxGeometry relative="1" as="geometry" />
        </mxCell>
        <mxCell id="y4S7bG7z480_d9foUhIg-15" value="" style="strokeWidth=2;html=1;shape=mxgraph.flowchart.annotation_2;align=left;labelPosition=right;pointerEvents=1;rotation=-90;" vertex="1" parent="WIyWlLk6GJQsqaUBKTNV-1">
          <mxGeometry x="370.5" y="412.25" width="50" height="267.25" as="geometry" />
        </mxCell>
        <mxCell id="y4S7bG7z480_d9foUhIg-27" style="edgeStyle=orthogonalEdgeStyle;rounded=0;orthogonalLoop=1;jettySize=auto;html=1;exitX=0.25;exitY=1;exitDx=0;exitDy=0;entryX=0.5;entryY=0;entryDx=0;entryDy=0;strokeWidth=2;" edge="1" parent="WIyWlLk6GJQsqaUBKTNV-1" source="y4S7bG7z480_d9foUhIg-24" target="y4S7bG7z480_d9foUhIg-26">
          <mxGeometry relative="1" as="geometry" />
        </mxCell>
        <mxCell id="y4S7bG7z480_d9foUhIg-28" value="Yes" style="edgeLabel;html=1;align=center;verticalAlign=middle;resizable=0;points=[];" vertex="1" connectable="0" parent="y4S7bG7z480_d9foUhIg-27">
          <mxGeometry x="-0.1919" y="1" relative="1" as="geometry">
            <mxPoint as="offset" />
          </mxGeometry>
        </mxCell>
        <mxCell id="y4S7bG7z480_d9foUhIg-30" style="edgeStyle=orthogonalEdgeStyle;rounded=0;orthogonalLoop=1;jettySize=auto;html=1;exitX=0.75;exitY=1;exitDx=0;exitDy=0;strokeWidth=2;" edge="1" parent="WIyWlLk6GJQsqaUBKTNV-1" source="y4S7bG7z480_d9foUhIg-24" target="y4S7bG7z480_d9foUhIg-29">
          <mxGeometry relative="1" as="geometry" />
        </mxCell>
        <mxCell id="y4S7bG7z480_d9foUhIg-31" value="No" style="edgeLabel;html=1;align=center;verticalAlign=middle;resizable=0;points=[];" vertex="1" connectable="0" parent="y4S7bG7z480_d9foUhIg-30">
          <mxGeometry x="0.004" y="-3" relative="1" as="geometry">
            <mxPoint as="offset" />
          </mxGeometry>
        </mxCell>
        <mxCell id="y4S7bG7z480_d9foUhIg-24" value="G&lt;sub&gt;POA,d&lt;/sub&gt; &amp;gt; GHI" style="rounded=0;whiteSpace=wrap;html=1;fillStyle=solid;fillColor=#E67300;strokeColor=#663300;" vertex="1" parent="WIyWlLk6GJQsqaUBKTNV-1">
          <mxGeometry x="250.5" y="700" width="290" height="40" as="geometry" />
        </mxCell>
        <mxCell id="y4S7bG7z480_d9foUhIg-26" value="&lt;div&gt;&lt;span lang=&quot;fr&quot; class=&quot;BxUVEf ILfuVd&quot;&gt;&lt;span class=&quot;hgKElc&quot;&gt;β&lt;/span&gt;&lt;/span&gt;&lt;span lang=&quot;en&quot; class=&quot;BxUVEf ILfuVd&quot;&gt;&lt;span class=&quot;hgKElc&quot;&gt;&lt;/span&gt;&lt;/span&gt;&lt;sub&gt;opt = &lt;/sub&gt;&lt;span lang=&quot;fr&quot; class=&quot;BxUVEf ILfuVd&quot;&gt;&lt;span class=&quot;hgKElc&quot;&gt;β&lt;sub&gt;d&lt;/sub&gt;&lt;/span&gt;&lt;/span&gt;&lt;/div&gt;&lt;div&gt;G&lt;sub&gt;POA,opt = &lt;/sub&gt;G&lt;sub&gt;POA,d&lt;/sub&gt;&lt;span lang=&quot;en&quot; class=&quot;BxUVEf ILfuVd&quot;&gt;&lt;/span&gt;&lt;/div&gt;" style="rounded=0;whiteSpace=wrap;html=1;fillColor=#1ba1e2;fontColor=#ffffff;strokeColor=default;" vertex="1" parent="WIyWlLk6GJQsqaUBKTNV-1">
          <mxGeometry x="263" y="790" width="121.5" height="41" as="geometry" />
        </mxCell>
        <mxCell id="y4S7bG7z480_d9foUhIg-29" value="&lt;div&gt;&lt;span lang=&quot;fr&quot; class=&quot;BxUVEf ILfuVd&quot;&gt;&lt;span class=&quot;hgKElc&quot;&gt;β&lt;/span&gt;&lt;/span&gt;&lt;span lang=&quot;en&quot; class=&quot;BxUVEf ILfuVd&quot;&gt;&lt;span class=&quot;hgKElc&quot;&gt;&lt;/span&gt;&lt;/span&gt;&lt;sub&gt;opt =&amp;nbsp;&lt;/sub&gt;0&lt;/div&gt;&lt;div&gt;G&lt;sub&gt;POA,opt = &lt;/sub&gt;GHI&lt;span lang=&quot;en&quot; class=&quot;BxUVEf ILfuVd&quot;&gt;&lt;/span&gt;&lt;/div&gt;" style="rounded=0;whiteSpace=wrap;html=1;fillColor=#1ba1e2;fontColor=#ffffff;strokeColor=default;" vertex="1" parent="WIyWlLk6GJQsqaUBKTNV-1">
          <mxGeometry x="407" y="790" width="121.5" height="41" as="geometry" />
        </mxCell>
        <mxCell id="y4S7bG7z480_d9foUhIg-34" style="edgeStyle=orthogonalEdgeStyle;rounded=0;orthogonalLoop=1;jettySize=auto;html=1;exitX=1;exitY=0;exitDx=0;exitDy=0;exitPerimeter=0;endArrow=none;endFill=0;strokeWidth=2;" edge="1" parent="WIyWlLk6GJQsqaUBKTNV-1">
          <mxGeometry relative="1" as="geometry">
            <mxPoint x="461" y="363" as="targetPoint" />
            <mxPoint x="460.875" y="474.2550000000001" as="sourcePoint" />
          </mxGeometry>
        </mxCell>
        <mxCell id="y4S7bG7z480_d9foUhIg-32" value="" style="strokeWidth=2;html=1;shape=mxgraph.flowchart.annotation_2;align=left;labelPosition=right;pointerEvents=1;rotation=-90;" vertex="1" parent="WIyWlLk6GJQsqaUBKTNV-1">
          <mxGeometry x="504" y="428.13" width="50" height="136.25" as="geometry" />
        </mxCell>
        <mxCell id="y4S7bG7z480_d9foUhIg-33" style="edgeStyle=orthogonalEdgeStyle;rounded=0;orthogonalLoop=1;jettySize=auto;html=1;exitX=0.5;exitY=1;exitDx=0;exitDy=0;entryX=1;entryY=1;entryDx=0;entryDy=0;entryPerimeter=0;endArrow=none;endFill=0;strokeWidth=2;" edge="1" parent="WIyWlLk6GJQsqaUBKTNV-1" source="b3d6tO9OOzQfFbIuxBPO-0" target="y4S7bG7z480_d9foUhIg-32">
          <mxGeometry relative="1" as="geometry" />
        </mxCell>
      </root>
    </mxGraphModel>
  </diagram>
</mxfile>
